<svg width="95" height="112" viewBox="0 0 95 112" fill="none" xmlns="http://www.w3.org/2000/svg">
<path d="M82.4999 53.1667H12.4999V24H82.4999M73.7499 88.1667C71.4293 88.1667 69.2037 87.2448 67.5627 85.6038C65.9218 83.9629 64.9999 81.7373 64.9999 79.4167C64.9999 77.096 65.9218 74.8704 67.5627 73.2295C69.2037 71.5885 71.4293 70.6667 73.7499 70.6667C76.0706 70.6667 78.2962 71.5885 79.9371 73.2295C81.578 74.8704 82.4999 77.096 82.4999 79.4167C82.4999 81.7373 81.578 83.9629 79.9371 85.6038C78.2962 87.2448 76.0706 88.1667 73.7499 88.1667ZM21.2499 88.1667C18.9293 88.1667 16.7037 87.2448 15.0627 85.6038C13.4218 83.9629 12.4999 81.7373 12.4999 79.4167C12.4999 77.096 13.4218 74.8704 15.0627 73.2295C16.7037 71.5885 18.9293 70.6667 21.2499 70.6667C23.5706 70.6667 25.7962 71.5885 27.4371 73.2295C29.078 74.8704 29.9999 77.096 29.9999 79.4167C29.9999 81.7373 29.078 83.9629 27.4371 85.6038C25.7962 87.2448 23.5706 88.1667 21.2499 88.1667ZM0.833252 82.3333C0.833252 87.4667 3.10825 92.075 6.66659 95.2833V105.667C6.66659 107.214 7.28117 108.697 8.37513 109.791C9.46909 110.885 10.9528 111.5 12.4999 111.5H18.3333C19.8803 111.5 21.3641 110.885 22.458 109.791C23.552 108.697 24.1666 107.214 24.1666 105.667V99.8333H70.8333V105.667C70.8333 107.214 71.4478 108.697 72.5418 109.791C73.6358 110.885 75.1195 111.5 76.6666 111.5H82.4999C84.047 111.5 85.5308 110.885 86.6247 109.791C87.7187 108.697 88.3333 107.214 88.3333 105.667V95.2833C91.8916 92.075 94.1666 87.4667 94.1666 82.3333V24C94.1666 3.58333 73.2833 0.666668 47.4999 0.666668C21.7166 0.666668 0.833252 3.58333 0.833252 24V82.3333Z" fill="#B8BDCE"/>
</svg>
